<svg xmlns="http://www.w3.org/2000/svg" viewBox="0 0 200 240">
  <!-- Transmission Tower -->
  <path d="M100 10 L100 150" stroke="#0066CC" stroke-width="3" fill="none"/>
  <path d="M70 40 L130 40" stroke="#0066CC" stroke-width="3" fill="none"/>
  <path d="M65 70 L135 70" stroke="#0066CC" stroke-width="3" fill="none"/>
  <path d="M60 100 L140 100" stroke="#0066CC" stroke-width="3" fill="none"/>
  <path d="M55 130 L145 130" stroke="#0066CC" stroke-width="3" fill="none"/>
  
  <!-- Tower Structure -->
  <path d="M85 10 L60 160 L70 160 L90 10 Z" fill="#0066CC" opacity="0.8"/>
  <path d="M115 10 L140 160 L130 160 L110 10 Z" fill="#0066CC" opacity="0.8"/>
  
  <!-- Cross bars -->
  <path d="M75 25 L125 25" stroke="#0066CC" stroke-width="2"/>
  <path d="M70 55 L130 55" stroke="#0066CC" stroke-width="2"/>
  <path d="M65 85 L135 85" stroke="#0066CC" stroke-width="2"/>
  <path d="M60 115 L140 115" stroke="#0066CC" stroke-width="2"/>
  
  <!-- Lightning Bolts -->
  <path d="M45 120 L35 135 L42 135 L35 150 L50 130 L40 130 L45 120 Z" fill="#DC143C"/>
  <path d="M155 80 L145 95 L152 95 L145 110 L160 90 L150 90 L155 80 Z" fill="#DC143C"/>
  
  <!-- Base Rectangle -->
  <rect x="10" y="170" width="180" height="60" rx="5" fill="#0066CC"/>
  
  <!-- Text -->
  <text x="100" y="200" text-anchor="middle" fill="white" font-family="Arial, sans-serif" font-size="24" font-weight="bold">AP TRANSCO</text>
  <text x="100" y="220" text-anchor="middle" fill="white" font-family="Arial, sans-serif" font-size="14" font-weight="bold">ISO 27001 - 2022</text>
</svg>
